# xmcd
# Track frame offsets:
# 150
# 14009
# 28073
# 49373
# 64713
# 81258
# 93197
# 107822
# 133263
# 151514
# 167291
# 193720
# 210598
# 226465
#
# Disc length: 3285 seconds
# Revision: 0
# Processed by: cddbd v1.4PL0 Copyright (c) Steve Scherf et al.
# Submitted via: VisiTrax 2.9.6.190 - For more info visit www.synapsa.com
#
DISCID=b50cd30e
DTITLE=John Denver - Countryroads The very best of John Denver CD 2
DYEAR=1900
DGENRE=Country and Western
TTITLE0=Thank God i'm a country boy
TTITLE1=Two different directions
TTITLE2=Back home again
TTITLE3=I'm sorry
TTITLE4=Leaving on a jetplane
TTITLE5=Lone again
TTITLE6=Dreamland express
TTITLE7=AMAZON (Let this be a voice)
TTITLE8=The chosen one
TTITLE9=Postcard from Paris
TTITLE10=Stoneheaven sunset
TTITLE11=I want to live
TTITLE12=Higher ground
TTITLE13=Ponies
EXTD=
EXTT0=
EXTT1=
EXTT2=
EXTT3=
EXTT4=
EXTT5=
EXTT6=
EXTT7=
EXTT8=
EXTT9=
EXTT10=
EXTT11=
EXTT12=
EXTT13=
PLAYORDER=
